<?xml version="1.0" encoding="UTF-8"?>
<svg xmlns="http://www.w3.org/2000/svg" xmlns:xlink="http://www.w3.org/1999/xlink" width="50px" height="48px" viewBox="0 0 49 48" version="1.1">
<g id="surface1">
<path style=" stroke:none;fill-rule:nonzero;fill:rgb(0%,0%,0%);fill-opacity:1;" d="M 14.835938 0.0390625 C 13.546875 0.367188 10.867188 2.734375 9.574219 4.679688 L 9.339844 5.03125 L 9.15625 4.921875 C 9.058594 4.859375 8.839844 4.757812 8.671875 4.699219 C 8.398438 4.601562 8.3125 4.589844 7.867188 4.589844 C 7.300781 4.589844 7.035156 4.644531 6.605469 4.867188 C 6.042969 5.148438 5.640625 5.574219 5.355469 6.175781 C 5.054688 6.8125 5.015625 7.519531 5.242188 8.203125 C 5.304688 8.398438 5.359375 8.566406 5.359375 8.570312 C 5.359375 8.578125 5.246094 8.65625 5.097656 8.742188 C 4.269531 9.238281 2.816406 10.5 1.957031 11.476562 C 0.21875 13.441406 -0.3125 14.941406 0.851562 14.617188 C 1.285156 14.492188 1.980469 14.09375 2.660156 13.574219 C 3.890625 12.636719 5.324219 11.132812 6.082031 9.996094 L 6.3125 9.644531 L 6.648438 9.816406 C 7.300781 10.136719 7.8125 10.175781 8.710938 9.960938 C 8.769531 9.949219 8.90625 10.054688 9.265625 10.382812 C 12.027344 12.914062 14.621094 16.140625 16.433594 19.3125 L 16.683594 19.75 L 16.441406 20.25 C 15.6875 21.820312 15.410156 23.679688 15.695312 25.335938 C 15.816406 26.070312 15.976562 26.628906 16.261719 27.351562 L 16.339844 27.550781 L 16.082031 28.085938 C 15.335938 29.644531 14.117188 31.484375 12.480469 33.542969 C 11.421875 34.867188 10.113281 36.363281 9.003906 37.519531 L 8.640625 37.898438 L 8.3125 37.835938 C 7.699219 37.71875 6.988281 37.832031 6.507812 38.117188 C 6.496094 38.125 6.429688 38.03125 6.363281 37.917969 C 5.828125 37.015625 4.070312 35.273438 2.679688 34.269531 C 1.6875 33.558594 0.671875 33.085938 0.28125 33.160156 C -0.332031 33.273438 0.105469 34.292969 1.378906 35.71875 C 2.394531 36.855469 4.050781 38.210938 5.175781 38.820312 L 5.542969 39.019531 L 5.414062 39.320312 C 5.214844 39.78125 5.15625 40.109375 5.175781 40.636719 C 5.191406 40.992188 5.214844 41.148438 5.292969 41.371094 C 5.558594 42.121094 6.046875 42.671875 6.726562 42.992188 C 7.101562 43.167969 7.453125 43.246094 7.886719 43.246094 C 8.363281 43.246094 8.671875 43.179688 9.015625 43.007812 L 9.292969 42.863281 L 9.480469 43.117188 C 10.015625 43.859375 11.304688 45.183594 12.171875 45.886719 C 13.417969 46.894531 14.59375 47.535156 15.195312 47.535156 C 15.316406 47.535156 15.378906 47.511719 15.453125 47.433594 C 15.542969 47.347656 15.550781 47.316406 15.53125 47.125 C 15.417969 46.035156 12.921875 43.433594 10.597656 41.984375 C 10.433594 41.878906 10.296875 41.785156 10.296875 41.769531 C 10.296875 41.75 10.332031 41.65625 10.375 41.558594 C 10.558594 41.125 10.609375 40.53125 10.507812 39.972656 L 10.453125 39.660156 L 10.789062 39.292969 C 11.328125 38.6875 12.914062 37.097656 13.558594 36.511719 C 15.601562 34.660156 17.90625 32.953125 19.855469 31.84375 L 20.175781 31.664062 L 20.574219 31.855469 C 21.304688 32.210938 22.082031 32.441406 22.96875 32.578125 C 23.5 32.660156 24.65625 32.671875 25.1875 32.601562 C 26.054688 32.484375 26.929688 32.230469 27.679688 31.871094 L 28.121094 31.660156 L 28.617188 31.9375 C 30.390625 32.941406 32.632812 34.648438 34.949219 36.773438 C 35.675781 37.4375 37.054688 38.761719 37.589844 39.300781 L 38.0625 39.785156 L 38.019531 40.011719 C 37.964844 40.289062 37.964844 40.851562 38.015625 41.117188 C 38.039062 41.230469 38.113281 41.4375 38.175781 41.585938 C 38.238281 41.730469 38.285156 41.851562 38.277344 41.859375 C 38.269531 41.863281 38.082031 41.996094 37.859375 42.148438 C 37.3125 42.527344 36.753906 43.003906 36.136719 43.625 C 34.828125 44.949219 33.847656 46.265625 33.492188 47.167969 C 33.367188 47.488281 33.367188 47.820312 33.492188 47.925781 C 34.074219 48.40625 36.714844 46.367188 38.484375 44.070312 C 38.734375 43.75 39.257812 42.972656 39.289062 42.878906 C 39.296875 42.855469 39.339844 42.867188 39.394531 42.90625 C 39.570312 43.023438 40.101562 43.191406 40.410156 43.234375 C 41.480469 43.386719 42.597656 42.777344 43.121094 41.769531 C 43.480469 41.074219 43.527344 40.328125 43.257812 39.523438 C 43.199219 39.339844 43.164062 39.191406 43.179688 39.183594 C 43.199219 39.175781 43.390625 39.050781 43.609375 38.902344 C 45.726562 37.484375 48.261719 34.445312 48.289062 33.296875 C 48.292969 33.125 48.277344 33.078125 48.199219 33.015625 C 47.546875 32.476562 44.574219 34.886719 42.800781 37.390625 C 42.628906 37.632812 42.445312 37.910156 42.394531 38 C 42.339844 38.089844 42.28125 38.167969 42.265625 38.167969 C 42.25 38.167969 42.128906 38.105469 41.988281 38.03125 C 41.453125 37.746094 40.699219 37.65625 40.136719 37.816406 L 39.875 37.890625 L 39.503906 37.542969 C 39.015625 37.089844 37.917969 35.949219 37.359375 35.320312 C 35.3125 33.011719 33.617188 30.601562 32.355469 28.203125 L 32.007812 27.550781 L 32.085938 27.351562 C 32.257812 26.925781 32.507812 26.089844 32.597656 25.648438 C 32.929688 23.976562 32.773438 22.257812 32.136719 20.65625 L 31.960938 20.210938 L 32.101562 19.945312 C 32.894531 18.492188 33.855469 17.105469 35.238281 15.425781 C 36.40625 14.003906 38.003906 12.265625 39.417969 10.882812 L 40.296875 10.019531 L 40.925781 10.011719 C 41.636719 10.003906 41.875 9.945312 42.316406 9.671875 C 42.539062 9.535156 42.554688 9.53125 42.605469 9.597656 C 42.636719 9.636719 42.777344 9.8125 42.914062 9.992188 C 43.449219 10.691406 44.648438 11.828125 45.699219 12.636719 C 46.878906 13.535156 48.085938 14.167969 48.628906 14.167969 C 48.816406 14.167969 48.957031 14.09375 48.984375 13.984375 C 49.039062 13.785156 48.71875 13.214844 48.171875 12.523438 C 47.769531 12.019531 46.5625 10.777344 46.058594 10.363281 C 45.203125 9.644531 44.207031 8.941406 43.65625 8.65625 L 43.382812 8.515625 L 43.484375 8.238281 C 43.570312 7.980469 43.578125 7.898438 43.578125 7.375 C 43.578125 6.847656 43.566406 6.761719 43.476562 6.484375 C 43.195312 5.636719 42.5625 4.992188 41.707031 4.699219 C 41.433594 4.601562 41.347656 4.589844 40.882812 4.589844 C 40.425781 4.589844 40.328125 4.601562 40.042969 4.699219 C 39.546875 4.859375 39.574219 4.859375 39.480469 4.710938 C 39.28125 4.394531 38.722656 3.730469 38.222656 3.226562 C 36.894531 1.886719 35.0625 0.582031 34.019531 0.25 C 32.230469 -0.320312 33.222656 1.722656 35.8125 3.929688 C 36.640625 4.632812 37.9375 5.5625 38.40625 5.789062 L 38.546875 5.855469 L 38.429688 6.082031 C 38.148438 6.648438 38.066406 7.425781 38.21875 8.066406 L 38.296875 8.371094 L 37.300781 9.363281 C 36.757812 9.910156 36.0625 10.578125 35.753906 10.855469 C 33.554688 12.832031 31.136719 14.574219 28.675781 15.964844 L 28.011719 16.339844 L 27.566406 16.148438 C 26.460938 15.671875 25.546875 15.460938 24.421875 15.421875 C 23.363281 15.382812 22.464844 15.515625 21.414062 15.863281 L 20.859375 16.050781 L 20.144531 15.675781 C 17.5625 14.34375 14.425781 11.910156 10.878906 8.511719 L 10.449219 8.097656 L 10.511719 7.835938 C 10.601562 7.457031 10.566406 6.890625 10.433594 6.503906 C 10.378906 6.34375 10.324219 6.1875 10.3125 6.152344 C 10.296875 6.109375 10.363281 6.046875 10.554688 5.933594 C 11.214844 5.535156 12.359375 4.578125 13.214844 3.707031 C 15.234375 1.652344 16.09375 -0.285156 14.835938 0.0390625 Z M 41.171875 6.8125 C 41.394531 6.921875 41.511719 7.140625 41.488281 7.410156 C 41.46875 7.644531 41.386719 7.78125 41.1875 7.894531 C 40.804688 8.113281 40.292969 7.8125 40.300781 7.375 C 40.304688 7.089844 40.453125 6.886719 40.71875 6.789062 C 40.917969 6.71875 40.988281 6.722656 41.171875 6.8125 Z M 8.203125 6.867188 C 8.273438 6.894531 8.375 6.972656 8.4375 7.039062 C 8.753906 7.382812 8.4375 7.972656 7.933594 7.972656 C 7.632812 7.972656 7.378906 7.710938 7.375 7.398438 C 7.371094 6.972656 7.800781 6.691406 8.203125 6.867188 Z M 8.289062 40.070312 C 8.453125 40.164062 8.574219 40.40625 8.574219 40.621094 C 8.574219 40.773438 8.550781 40.824219 8.441406 40.949219 C 8.269531 41.144531 8.128906 41.203125 7.882812 41.179688 C 7.457031 41.136719 7.242188 40.675781 7.460938 40.269531 C 7.515625 40.167969 7.722656 40.003906 7.828125 39.976562 C 7.945312 39.949219 8.160156 39.992188 8.289062 40.070312 Z M 41.058594 40.140625 C 41.25 40.261719 41.359375 40.507812 41.324219 40.730469 C 41.285156 40.949219 41.03125 41.207031 40.816406 41.246094 C 40.53125 41.292969 40.261719 41.132812 40.160156 40.867188 C 40.09375 40.679688 40.105469 40.359375 40.195312 40.25 C 40.378906 40.011719 40.769531 39.964844 41.058594 40.140625 Z M 41.058594 40.140625 "/>
</g>
</svg>
